<?xml version="1.0" encoding="UTF-8" standalone="no"?> <svg xmlns:dc="http://purl.org/dc/elements/1.1/" xmlns:cc="http://creativecommons.org/ns#" xmlns:rdf="http://www.w3.org/1999/02/22-rdf-syntax-ns#" xmlns:svg="http://www.w3.org/2000/svg" xmlns="http://www.w3.org/2000/svg" viewBox="0 0 312.57333 58.946667" height="58.946667" width="312.57333" xml:space="preserve" id="svg2" version="1.1"><metadata id="metadata8"></metadata><defs id="defs6"></defs><g transform="matrix(1.3333333,0,0,-1.3333333,0,58.946667)" id="g10"><g transform="scale(0.1)" id="g12"><path id="path14" style="fill:#ffffff;fill-opacity:1;fill-rule:nonzero;stroke:none" d="m 2073.71,215.734 h 40.83 v 125.84 c 0,13.098 8.84,18.891 21.33,10.66 l 208.41,-138.019 v 223.637 h -40.83 v -125.84 c 0,-13.098 -8.84,-18.891 -21.33,-10.66 l -208.41,138.019 z m -143.2,63.68 H 1825.7 c -11.58,0 -15.24,9.75 -8.53,18.59 l 48.14,63.98 c 8.83,11.579 16.75,11.579 25.59,0 l 48.14,-63.98 c 6.7,-8.84 3.05,-18.59 -8.53,-18.59 m -174.89,-63.68 13.1,17.059 c 5.79,7.621 12.8,11.891 21.63,11.891 h 175.5 c 8.84,0 15.85,-4.27 21.64,-11.891 l 13.1,-17.059 h 48.75 L 1878.1,439.371 1706.87,215.734 Z m -113.96,0 h 40.83 v 222.118 h -40.83 z m -148.99,103.899 h -106.34 c -12.19,0 -18.28,6.09 -18.28,18.281 v 47.231 c 0,12.187 6.09,18.277 18.28,18.277 h 106.34 c 32.91,0 53.32,-13.707 53.32,-41.738 0,-28.34 -20.41,-42.051 -53.32,-42.051 m -8.23,-42.961 67.64,-60.938 h 54.54 l -67.94,60.938 c -6.71,6.09 -5.79,15.23 3.96,19.801 23.15,10.968 46.01,30.781 46.01,65.211 0,48.437 -32.3,76.168 -94.76,76.168 H 1327.22 V 215.734 h 40.83 v 51.489 c 0,12.191 6.09,18.281 18.28,18.281 h 69.47 c 14.63,0 21.94,-2.742 28.64,-8.832 m -420.47,124.621 h 85.92 c 61.86,0 94.76,-31.691 94.76,-74.352 0,-42.648 -32.9,-74.648 -94.76,-74.648 h -85.92 c -12.19,0 -18.28,6.102 -18.28,18.281 v 112.43 c 0,12.187 6.09,18.289 18.28,18.289 m 86.53,36.559 H 1004.86 V 215.734 h 146.56 c 77.08,0 135.89,43.571 135.89,111.207 0,67.653 -58.81,110.911 -136.81,110.911 M 681.891,215.734 h 40.828 v 125.84 c 0,13.098 8.832,18.891 21.332,10.66 l 208.41,-138.019 v 223.637 h -40.832 v -125.84 c 0,-13.098 -8.84,-18.891 -21.328,-10.66 l -208.41,138.019 z m -187.082,32.297 c -62.457,0 -105.731,33.821 -105.731,78.91 0,44.793 43.274,78.614 105.731,78.614 61.851,0 105.121,-33.821 105.121,-78.614 0,-45.089 -42.961,-78.91 -105.121,-78.91 m 0,-36.566 c 85.312,0 147.781,49.058 147.781,115.476 0,66.122 -62.77,115.172 -147.781,115.172 -85.618,0 -148.387,-49.05 -148.387,-115.172 0,-66.418 62.769,-115.476 148.387,-115.476 M 0,215.734 h 40.8203 v 98.11 c 0,10.668 10.3594,13.711 18.2813,4.871 l 94.4574,-104.5 94.453,104.5 c 7.929,8.84 18.289,5.797 18.289,-4.871 v -98.11 h 40.82 V 439.371 L 164.828,281.543 c -7.008,-7.922 -15.539,-7.922 -22.539,0 L 0,439.371 V 215.734"></path><path id="path16" style="fill:#ffffff;fill-opacity:1;fill-rule:nonzero;stroke:none" d="M 61.2695,1.82031 79.9492,20.8242 c 13.7735,13.9766 24.8208,29.0196 24.8208,50.0469 0,33.3709 -25.5512,57.8199 -61.2661,57.8199 H 0 V 1.82031 Z M 16.6602,112.762 h 23.5781 c 28.289,-0.356 46.9531,-19.9417 46.9531,-46.7854 0,-29 -21.0273,-48.2305 -41.6992,-48.2305 H 16.6602 Z M 194.516,0 c 9.789,0 19.207,1.82031 25.023,4.71094 l 14.688,15.02736 c 12.308,12.5117 21.554,27.7422 21.554,48.6015 -0.187,35.3592 -27.914,62.1682 -63.441,62.1682 -10.711,0 -19.774,-2.344 -24.481,-5.067 L 153.172,110.414 C 141.746,98.6172 131.973,83.2148 131.973,62 c 0,-34.8164 27.894,-62 62.543,-62 m 1.988,16.1172 c -25.383,0 -47.688,19.582 -47.688,51.6797 0,29.7344 19.754,46.5981 41.704,46.5981 24.668,0 48.414,-19.2114 48.414,-51.852 0,-29.375 -20.313,-46.4258 -42.43,-46.4258 M 375.09,74.8516 h -66.559 v 53.8394 h -16.66 V 1.82031 h 16.66 V 58.9219 H 375.09 V 1.82031 h 16.64 V 128.691 H 375.09 Z M 537.676,1.82031 492.184,128.691 H 467.535 L 422.023,1.82031 h 17.411 l 11.781,32.99609 h 56.543 L 519.367,1.82031 Z M 479.672,115.125 502.145,50.7461 H 456.84 Z"></path></g></g></svg> 