<svg xmlns="http://www.w3.org/2000/svg" width="259.81" height="36.443" viewBox="0 0 259.81 36.443">
  <g id="그룹_5156" data-name="그룹 5156" transform="translate(-166.822 -241.954)">
    <path id="패스_45410" data-name="패스 45410" d="M276.521,250.63c-1.495-8.567-27.249-11.246-57.522-5.975a162.8,162.8,0,0,0-33.131,9.156,4.356,4.356,0,0,1,3.016.962,2.7,2.7,0,0,1,.72,1.978v.849h-2.966v-.754a.937.937,0,0,0-1.04-1.007.921.921,0,0,0-1.016.746,1.551,1.551,0,0,0,.019.594c.317,1.3,4.723,2.1,5.2,4.5a5.754,5.754,0,0,1,.017,1.91c-.28,1.935-1.974,2.681-4.134,2.681-3.018,0-4.245-1.43-4.245-3.4v-.926h3.184l.005,1.161a1,1,0,0,0,1.12,1.011.979.979,0,0,0,1.1-.753,1.5,1.5,0,0,0-.026-.834c-.587-1.476-4.7-2.165-5.209-4.552a4,4,0,0,1-.031-1.576,2.893,2.893,0,0,1,.263-.825c-9.916,4.636-15.719,9.736-14.951,14.143,1.5,8.571,27.247,11.247,57.518,5.979a160.315,160.315,0,0,0,34.375-9.677c-.133.012-.258.021-.4.021-2.071,0-3.925-.776-4.113-2.892-.038-.383-.038-.55-.045-.768l.007-4.872c0-.2.023-.573.042-.763.252-2.049,1.865-2.892,4.108-2.892,1.735,0,3.861.495,4.1,2.895.03.3.03.622.03.723v.464h-3v-.69a3.642,3.642,0,0,0-.035-.429,1.172,1.172,0,0,0-2.232,0,3.1,3.1,0,0,0-.045.541v5.29a2.41,2.41,0,0,0,.026.435,1.042,1.042,0,0,0,1.146.815,1.031,1.031,0,0,0,1.139-.815,2.134,2.134,0,0,0,.029-.435v-1.635h-1.182v-1.768h4.172v3.137a7,7,0,0,1-.036.768,3.052,3.052,0,0,1-.5,1.426C271.653,259.99,277.272,254.968,276.521,250.63Zm-78.5,15.189L196.5,255.5h-.054l-1.556,10.32h-3.205l2.153-11.657h5.229l2.137,11.657Zm15.4,0-.073-10.122H213.3l-1.886,10.122H208.4L206.533,255.7h-.053l-.071,10.122h-2.975l.258-11.657h4.788l1.393,8.661h.07l1.4-8.661h4.788l.252,11.657Zm14.015-2.26c-.32,2.26-2.533,2.652-4.094,2.652-2.594,0-4.2-1.108-4.2-3.365l.007-.924h3.142v1.148a.992.992,0,0,0,1.12,1,.963.963,0,0,0,1.08-.739,1.44,1.44,0,0,0-.021-.829c-.581-1.448-4.665-2.155-5.158-4.506a3.938,3.938,0,0,1-.026-1.561c.34-2.13,2.39-2.573,4.035-2.573a4.4,4.4,0,0,1,3.189.964,2.65,2.65,0,0,1,.721,1.954v.846h-2.938v-.744a.934.934,0,0,0-1.028-1,.914.914,0,0,0-1.014.744,1.383,1.383,0,0,0,.014.58c.32,1.294,4.683,2.085,5.162,4.458A5.847,5.847,0,0,1,227.433,263.558Zm10.89-1.054c.008.216-.016.651-.029.765-.179,1.916-1.553,2.895-4.074,2.895s-3.9-.979-4.08-2.895c-.007-.114-.031-.549-.026-.765V254.16h3v8.607a1.826,1.826,0,0,0,.03.431,1,1,0,0,0,1.071.815,1.019,1.019,0,0,0,1.085-.815,3.337,3.337,0,0,0,.019-.431V254.16h3Zm12.956,3.194H247.1l-2.81-9.23h-.045l.151,9.23h-2.919V254.162h4.359l2.6,8.87h.059l-.151-8.87h2.932Z" transform="translate(0)" fill="#1428a0"/>
    <g id="그룹_5155" data-name="그룹 5155" transform="translate(298.965 252.857)">
      <path id="패스_45411" data-name="패스 45411" d="M431.206,278.427c-3.766,0-4.47-2.213-4.308-4.73h3.038c0,1.389.061,2.557,1.733,2.557a1.453,1.453,0,0,0,1.53-1.651c0-2.616-6.121-2.778-6.121-7.106,0-2.275,1.087-4.086,4.792-4.086,2.957,0,4.427,1.328,4.226,4.367h-2.959c0-1.086-.181-2.193-1.408-2.193a1.416,1.416,0,0,0-1.571,1.55c0,2.758,6.121,2.517,6.121,7.086C436.28,277.986,433.521,278.427,431.206,278.427Z" transform="translate(-426.877 -263.412)" fill="#1428a0"/>
      <path id="패스_45412" data-name="패스 45412" d="M447.49,278.42l4.024-14.533h4.008l3.945,14.533h-3.2l-.8-3.221h-4.148l-.825,3.221Zm5.858-11.735h-.042l-1.388,6.281h2.9Z" transform="translate(-437.016 -263.646)" fill="#1428a0"/>
      <path id="패스_45413" data-name="패스 45413" d="M473.767,278.42V263.887h4.892l2.275,9.883h.039l2.416-9.883h4.729V278.42h-2.957V267.208h-.039l-2.8,11.212h-2.9l-2.658-11.212h-.041V278.42Z" transform="translate(-449.941 -263.646)" fill="#1428a0"/>
      <path id="패스_45414" data-name="패스 45414" d="M510.478,278.427c-3.764,0-4.47-2.213-4.307-4.73h3.04c0,1.389.06,2.557,1.73,2.557a1.453,1.453,0,0,0,1.531-1.651c0-2.616-6.12-2.778-6.12-7.106,0-2.275,1.087-4.086,4.79-4.086,2.96,0,4.429,1.328,4.228,4.367H512.41c0-1.086-.183-2.193-1.41-2.193a1.416,1.416,0,0,0-1.57,1.55c0,2.758,6.12,2.517,6.12,7.086C515.551,277.986,512.794,278.427,510.478,278.427Z" transform="translate(-465.868 -263.412)" fill="#1428a0"/>
      <path id="패스_45415" data-name="패스 45415" d="M538.706,263.887v10.305c0,2.175-1.227,4.469-4.931,4.469-3.342,0-4.951-1.73-4.951-4.469V263.887h3.039v10.1c0,1.792.765,2.5,1.874,2.5,1.326,0,1.93-.886,1.93-2.5v-10.1Z" transform="translate(-477.021 -263.646)" fill="#1428a0"/>
      <path id="패스_45416" data-name="패스 45416" d="M553.2,278.42V263.887h4.1l3.867,10.065h.041V263.887h2.837V278.42h-4l-3.968-10.629h-.04V278.42Z" transform="translate(-489.011 -263.646)" fill="#1428a0"/>
      <path id="패스_45417" data-name="패스 45417" d="M586.1,268.122c.02-1.349-.2-2.537-1.814-2.537-1.891,0-1.891,2.557-1.891,5.375,0,4.548.443,5.353,2.174,5.353a4.782,4.782,0,0,0,1.509-.281v-3.22h-1.65v-2.236h4.691v7.367a27.4,27.4,0,0,1-4.107.483c-5.111,0-5.7-2.114-5.7-7.627,0-3.665.18-7.388,5.153-7.388,2.977,0,4.83,1.671,4.65,4.71Z" transform="translate(-501.859 -263.412)" fill="#1428a0"/>
      <path id="패스_45418" data-name="패스 45418" d="M612.334,270.921c0-3.845,0-7.509,5.014-7.509,3.1,0,4.346,1.71,4.226,4.831h-2.98c0-1.932-.344-2.657-1.246-2.657-1.712,0-1.934,1.61-1.934,5.335s.222,5.334,1.934,5.334c1.407,0,1.347-1.813,1.387-2.96h3c0,3.884-1.55,5.132-4.387,5.132C612.334,278.427,612.334,274.724,612.334,270.921Z" transform="translate(-518.097 -263.412)" fill="#1428a0"/>
      <path id="패스_45419" data-name="패스 45419" d="M641.868,277.039a5.321,5.321,0,0,1-4.044,1.388c-3.344,0-5.2-1.569-5.2-4.407,0-1.933,1.35-3.161,2.859-4.147a5.971,5.971,0,0,1-1.609-3.643c0-1.61,1.912-2.818,4.387-2.818,1.391,0,3.685.644,3.685,2.838,0,1.893-1.31,2.859-2.477,3.906l2.274,2.978a9.028,9.028,0,0,0,.323-2.9h2.456a9.127,9.127,0,0,1-.986,4.972l2.194,2.979h-2.978Zm-4.731-5.375a3.264,3.264,0,0,0-1.467,2.356,2.047,2.047,0,0,0,2.214,2.234,2.688,2.688,0,0,0,2.214-.966Zm2.034-5.193a1.153,1.153,0,0,0-1.249-1.249,1.212,1.212,0,0,0-1.265,1.147,3.356,3.356,0,0,0,1.064,2.094A2.562,2.562,0,0,0,639.172,266.472Z" transform="translate(-528.079 -263.412)" fill="#1428a0"/>
      <path id="패스_45420" data-name="패스 45420" d="M668.634,263.887V266.3h-3.383V278.42h-3.039V266.3h-3.382v-2.415Z" transform="translate(-540.967 -263.646)" fill="#1428a0"/>
    </g>
  </g>
</svg>
