<svg width="250" height="40" viewBox="0 0 250 40" fill="none" xmlns="http://www.w3.org/2000/svg">
  <g clip-path="url(#a)" fill="#372A86">
    <path fill-rule="evenodd" clip-rule="evenodd" d="M136.298 0c10.77 0 19.951 8.651 19.951 19.95 0 10.947-9.004 19.775-19.951 19.775-10.946 0-19.95-8.828-19.95-19.774 0-11.3 9.004-19.951 19.95-19.951Zm0 33.016c7.239 0 12.889-6.18 12.889-13.242 0-7.239-5.65-13.242-12.889-13.242-7.062 0-12.888 6.003-12.888 13.242 0 7.062 5.65 13.242 12.888 13.242Z"/>
    <path d="M53.32 1.766C50.672.706 46.788.706 41.667.706h-9.533v38.136h6.885V8.122h3.531c.401 0 .8-.003 1.194-.006 2.73-.02 5.275-.037 7.28.888 1.766.707 2.65 3.002 2.65 4.59 0 1.59-.354 5.474-5.65 5.474H41.49l12.006 19.597h8.474l-8.827-14.124c4.943-1.412 7.768-5.473 7.768-10.946 0-4.767-2.472-9.71-7.592-11.83Z"/>
    <path fill-rule="evenodd" clip-rule="evenodd" d="M106.638 5.12C104.343 3.178 100.282.706 90.925.706h-8.652v37.96h8.828c4.237 0 9.181-.53 12.712-2.472 5.65-3.002 9.181-9.534 9.181-16.42 0-5.826-2.825-11.652-6.356-14.654Zm-6.71 25.424c-2.824 1.589-5.296 1.765-9.18 1.765h-1.766V7.592h1.413c4.414 0 8.121.53 11.123 3.178 2.472 2.119 4.061 5.65 4.061 9.357 0 4.06-1.943 8.298-5.65 10.417Z"/>
    <path d="M184.675 28.425 168.961.706h-8.121v38.136h7.062V11.123h.177l15.889 27.719h7.945V.706h-7.062v27.72h-.176ZM231.992 39.548c7.415 0 14.653-4.237 17.655-11.3h-8.298c-1.589 1.766-4.414 4.768-9.534 4.768-6.709 0-12.712-6.003-12.712-13.242 0-7.768 6.179-13.242 12.359-13.242 4.237 0 7.592 1.943 10.24 5.12H250C246.292 3.355 238.347 0 231.992 0c-11.123 0-19.775 9.18-19.775 19.598 0 10.77 8.828 19.95 19.775 19.95ZM0 7.415h10.593v31.427h7.062V7.239h10.77V.706H0v6.71ZM67.443.706h7.063v38.136h-7.063V.706ZM199.684.706h7.062v38.136h-7.062V.706Z"/>
  </g>
  <defs>
    <clipPath id="a">
      <path fill="#fff" d="M0 0h250v40H0z"/>
    </clipPath>
  </defs>
</svg>
